<svg width="43" height="59" viewBox="0 0 43 59" fill="none" xmlns="http://www.w3.org/2000/svg">
<path d="M11 41H28.5V36H11V41Z" fill="currentColor"/>
<path d="M11 31H24V26H11V31Z" fill="currentColor"/>
<path d="M37.3333 58.3953H5.33333C2.38781 58.3953 0 55.7938 0 52.5847V6.10034C0 2.89127 2.38781 0.289795 5.33333 0.289795H24C24.0291 0.291167 24.0578 0.297036 24.0853 0.307227C24.1114 0.315992 24.1382 0.321833 24.1653 0.324658C24.4005 0.341082 24.6327 0.390893 24.856 0.472827L24.9307 0.498975C24.9911 0.521293 25.0499 0.548484 25.1067 0.580322C25.3972 0.721006 25.6619 0.91787 25.888 1.16138L41.888 18.593C42.1115 18.8393 42.2922 19.1278 42.4213 19.4443C42.448 19.5082 42.4667 19.575 42.488 19.6418L42.512 19.7174C42.5864 19.9596 42.6304 20.2118 42.6427 20.4669C42.6468 20.4936 42.653 20.5198 42.6613 20.5454C42.666 20.5722 42.6678 20.5995 42.667 20.6267V52.5847C42.667 55.7938 40.2788 58.3953 37.3333 58.3953ZM5.33333 6.10034V52.5847H37.3333V23.532H24C22.5272 23.532 21.3333 22.2312 21.3333 20.6267V6.10034H5.33333ZM26.6667 10.2084V17.7214H33.5627L26.6667 10.2084Z" fill="currentColor"/>
</svg>
