<svg width="80" height="81" viewBox="0 0 80 81" fill="none" xmlns="http://www.w3.org/2000/svg">
<path d="M76.2252 39.981C76.2252 35.3541 76.2434 30.7272 76.2174 26.1003C76.2019 23.4894 76.2045 20.8708 76.0356 18.2677C75.807 14.7345 74.2924 11.6898 71.9231 9.12043C68.7459 5.673 64.7373 3.84927 60.0481 3.82848C46.8611 3.77133 33.6715 3.79991 20.4846 3.8103C18.7336 3.8129 17.0008 4.01034 15.3147 4.54291C11.8049 5.65221 8.96803 7.69157 6.82735 10.6818C4.76462 13.5628 3.7982 16.8076 3.793 20.3278C3.77741 33.3849 3.77482 46.4445 3.79041 59.5016C3.793 62.8685 4.58017 66.0224 6.49482 68.8567C9.71363 73.6238 14.234 76.162 19.9234 76.2088C33.3468 76.3153 46.7754 76.2529 60.2013 76.2114C61.4821 76.2088 62.7941 76.0139 64.0333 75.6892C67.5378 74.7747 70.4241 72.8601 72.6947 70.0153C74.1313 68.215 75.1601 66.1938 75.6849 63.9856C76.0538 62.4269 76.1863 60.7824 76.1993 59.1743C76.2564 52.7808 76.2252 46.3822 76.2252 39.981ZM40.0468 0.0303447C46.726 0.0303447 53.4078 -0.0501859 60.087 0.0511324C67.1923 0.157647 72.7466 3.28033 76.724 9.15679C78.9868 12.5003 79.9974 16.2361 79.9948 20.2628C79.9896 33.429 79.9896 46.5926 80 59.7588C80.0026 64.8455 78.3581 69.3295 75.0354 73.1588C72.5076 76.0737 69.3486 78.0689 65.6388 79.1886C63.6799 79.7809 61.6899 80.0251 59.648 80.0225C46.5701 80.0121 33.4897 79.9939 20.4118 80.0355C17.1904 80.0459 14.1223 79.4224 11.2672 78.0039C7.53399 76.149 4.58796 73.3926 2.5512 69.714C0.787224 66.529 -0.00773699 63.1231 5.67312e-05 59.486C0.0234379 46.4731 0.0182446 33.4576 0.00265717 20.4447C-0.00513654 15.0462 1.77443 10.3414 5.43488 6.38742C7.89769 3.72717 10.8957 1.88526 14.3951 0.856485C16.4448 0.253771 18.5257 0.014763 20.6534 0.0199588C27.117 0.0355463 33.5806 0.0251518 40.0442 0.0251518V0.0303447H40.0468Z" fill="#0033E9"/>
<path d="M49.3031 48.6839C49.1083 49.2711 49.2278 49.4971 49.8513 49.5023C51.2334 49.5101 52.6181 49.5023 54.0001 49.5023C54.3613 49.5023 54.7198 49.5023 55.1848 49.5023C55.0991 49.879 55.0627 50.1492 54.977 50.4038C54.5691 51.6508 54.1378 52.89 53.7326 54.137C52.9168 56.6517 52.1167 59.1717 51.2983 61.6865C50.8151 63.1751 50.3059 64.6585 49.8227 66.1471C49.5655 66.9446 49.6694 67.0823 50.5294 67.0875C52.4518 67.1031 54.3742 67.1161 56.2993 67.1083C57.3151 67.1057 57.3333 67.046 57.6242 66.0795C58.0321 64.7208 58.4711 63.3751 58.9102 62.0268C59.5207 60.1459 60.1468 58.2676 60.7599 56.3867C61.4561 54.2565 62.1446 52.1236 62.833 49.9881C62.9577 49.5984 63.2019 49.4841 63.6072 49.4893C64.9685 49.5153 66.3298 49.4867 67.6911 49.5023C68.0912 49.5075 68.325 49.3932 68.4549 48.9827C69.068 47.0551 69.7201 45.1404 70.3332 43.2128C70.5722 42.462 70.4787 42.3321 69.6785 42.3165C68.2964 42.2879 66.9117 42.2983 65.5297 42.2983C61.0145 42.2983 56.5019 42.2931 51.9868 42.3217C51.7426 42.3243 51.4126 42.5321 51.2749 42.7451C51.0697 43.0595 50.997 43.4622 50.8775 43.8311C50.3527 45.4522 49.8409 47.0732 49.3031 48.6839ZM27.3508 66.3419C27.1768 66.8641 27.2729 67.0823 27.821 67.0849C29.9825 67.0927 32.1414 67.1161 34.3028 67.0823C34.5366 67.0797 34.8977 66.794 34.9783 66.5601C35.4953 65.0793 35.9577 63.5803 36.4201 62.084C37.5814 58.3404 38.7297 54.5942 39.8909 50.8532C40.0234 50.4245 40.2027 50.0089 40.3611 49.5854C40.4417 49.6036 40.5222 49.6218 40.6027 49.6374C40.6183 49.8218 40.6495 50.0037 40.6495 50.1881C40.6755 52.4145 40.6937 54.641 40.7248 56.8648C40.7664 59.9329 40.8158 63.001 40.8677 66.0666C40.8833 67.0434 40.9353 67.0979 41.9017 67.1031C43.6943 67.1161 45.4894 67.1187 47.282 67.1109C48.2042 67.1057 48.251 67.0512 48.2224 66.0951C48.1055 62.1229 47.986 58.1481 47.8665 54.1759C47.7548 50.5051 47.6301 46.8342 47.5366 43.1608C47.5236 42.5893 47.3599 42.3451 46.7572 42.3477C43.1279 42.3684 39.496 42.3788 35.8668 42.3581C35.3056 42.3555 35.0484 42.5607 34.8951 43.0699C34.6224 43.9739 34.2872 44.8572 34.0015 45.7561C33.0143 48.8502 32.053 51.9495 31.0554 55.0384C29.8396 58.8132 28.6056 62.5802 27.3508 66.3419ZM9.91367 58.1221C10.3138 61.0396 11.8101 63.3439 14.1924 65.0871C17.1852 67.2772 20.6171 67.22 24.0697 67.0564C24.2567 67.0486 24.5217 66.7498 24.5944 66.5342C25.2127 64.6741 25.7791 62.7958 26.3948 60.9331C26.6961 60.0238 26.6676 59.9381 25.7012 59.9303C24.0151 59.9199 22.3265 59.9641 20.643 59.9121C19.4428 59.8757 18.3543 59.4938 17.5905 58.4781C16.9202 57.587 16.8942 56.5478 16.9618 55.5061C17.1099 53.1913 18.1309 51.3806 20.1988 50.2661C20.8171 49.9309 21.5029 49.5984 22.3317 49.7933C21.8563 51.2507 21.4042 52.6198 20.9678 53.9915C20.7521 54.6695 20.8846 54.841 21.5991 54.8436C23.5007 54.8462 25.405 54.8332 27.3067 54.8514C27.7171 54.854 27.9198 54.7397 28.0497 54.3266C28.6498 52.4431 29.2967 50.5726 29.9124 48.6917C30.4943 46.9122 31.0658 45.13 31.6244 43.3427C31.8816 42.5191 31.7569 42.3529 30.9385 42.3529C28.2185 42.3529 25.4959 42.3217 22.7785 42.3762C20.1546 42.4308 17.6736 43.127 15.5485 44.6754C10.9788 48.0033 9.14989 52.5548 9.91367 58.1221ZM38.5998 15.0385C38.9167 14.111 38.8128 13.9318 37.823 13.9292C32.8506 13.9188 27.8782 13.8668 22.9058 13.9292C20.7417 13.9551 18.6167 14.389 16.689 15.4593C13.7923 17.0648 12.031 19.4783 11.5452 22.788C11.0671 26.0562 12.0206 28.8256 14.3743 31.1325C15.4862 32.221 16.8345 32.8341 18.3101 33.2524C19.5441 33.6005 19.7935 33.5304 20.204 32.3535C20.7366 30.8259 21.2431 29.2906 21.7367 27.7526C22.0199 26.8745 21.9056 26.7187 21.0405 26.6485C19.7338 26.5394 18.7933 25.7496 18.6556 24.6871C18.4218 22.9075 19.5493 21.9333 20.5287 21.58C22.2979 20.9409 24.1138 21.3514 26.0389 21.2137C25.9609 21.554 25.9324 21.7411 25.8726 21.9203C25.4725 23.1257 25.0595 24.3286 24.6672 25.5366C23.7345 28.4047 22.8097 31.2754 21.8822 34.1435C21.477 35.3957 21.0639 36.6427 20.6768 37.9026C20.469 38.5781 20.6093 38.7418 21.3341 38.7444C23.3656 38.7496 25.3998 38.7418 27.4314 38.76C27.9016 38.7651 28.1744 38.6482 28.3276 38.1468C28.9615 36.0919 29.637 34.0473 30.3046 32.0028C31.4269 28.5632 32.5466 25.1261 33.6975 21.6969C33.7703 21.4839 34.0898 21.2501 34.3236 21.2137C34.8094 21.1383 35.316 21.1721 35.8122 21.1955C36.3422 21.2215 36.6254 21.037 36.7942 20.4941C37.3632 18.6599 37.9789 16.8466 38.5998 15.0385ZM48.7004 14.7137C48.8953 14.1006 48.7784 13.9499 48.1081 13.9447C46.0324 13.9318 43.9566 13.9473 41.8809 13.924C41.3691 13.9188 41.1353 14.163 41.0054 14.602C40.8106 15.2619 40.6261 15.9243 40.4105 16.5764C39.4986 19.338 38.566 22.0892 37.6619 24.8534C36.2435 29.1945 34.8432 33.5434 33.4325 37.8897C33.2299 38.5131 33.378 38.7366 34.03 38.7444C35.0666 38.7522 36.1058 38.747 37.1423 38.747C37.7918 38.747 38.4387 38.747 39.0882 38.747C40.8262 38.747 40.8651 38.7625 41.4289 37.1233C42.2472 34.7436 43.0084 32.3457 43.7852 29.953C44.5957 27.4565 45.3933 24.9573 46.1986 22.4607C47.0352 19.8758 47.8769 17.2986 48.7004 14.7137ZM63.4877 24.1389C63.0097 25.9679 61.6172 27.2616 59.4921 27.2538C59.1674 27.2538 58.8452 27.2538 58.5205 27.2538V27.2798C57.9594 27.2798 57.3982 27.285 56.8371 27.2772C56.4708 27.272 56.3357 27.1239 56.4656 26.7394C57.0345 25.0482 57.6008 23.357 58.1308 21.6553C58.2555 21.2501 58.4815 21.1721 58.8375 21.1747C59.7026 21.1851 60.5651 21.2033 61.4302 21.1877C63.2799 21.1591 63.8488 22.7594 63.4877 24.1389ZM69.611 18.7041C67.8002 15.4957 64.9192 14.0487 61.3314 13.9421C58.7855 13.8668 56.2343 13.9473 53.6832 13.9214C53.0051 13.9136 52.7454 14.2357 52.5713 14.8254C52.1868 16.1452 51.7608 17.4519 51.3321 18.7587C50.3527 21.7566 49.3551 24.752 48.3757 27.75C47.4534 30.5765 46.5364 33.4031 45.6271 36.2348C45.3751 37.0194 45.1465 37.8143 44.8997 38.6326C45.1517 38.6924 45.253 38.7366 45.3569 38.7366C47.6041 38.7418 49.8513 38.7548 52.0985 38.7262C52.2855 38.7236 52.5687 38.5028 52.6388 38.3183C53.0181 37.3129 53.3896 36.2971 53.678 35.2632C53.8417 34.6786 54.1067 34.4942 54.7146 34.4812C57.0163 34.4344 59.3233 34.3747 61.6198 34.2136C63.0798 34.1097 64.4074 33.4784 65.6362 32.7016C67.9925 31.2104 69.5304 29.0672 70.3098 26.4147C71.0866 23.7726 70.9957 21.1539 69.611 18.7041Z" fill="#0033E9"/>
<path d="M66.6026 64.009C66.5247 64.0635 66.4337 64.1025 66.3272 64.1285C66.2207 64.1545 66.1064 64.1675 65.9817 64.1675H65.5271V62.7672H66.0726C66.3272 62.7672 66.5221 62.8243 66.6571 62.9412C66.7896 63.0581 66.8572 63.2374 66.8572 63.479C66.8572 63.6037 66.8338 63.7076 66.787 63.7959C66.7403 63.8843 66.6805 63.9544 66.6026 64.009ZM67.6521 66.0951L66.6597 64.5156C66.7559 64.4766 66.8494 64.4247 66.9429 64.3623C67.0364 64.3 67.1196 64.2272 67.1923 64.1415C67.2651 64.0557 67.3222 63.9544 67.3664 63.8401C67.4105 63.7258 67.4313 63.5959 67.4313 63.4504C67.4313 63.2868 67.4053 63.1361 67.3534 62.9984C67.3014 62.8607 67.2261 62.7412 67.1248 62.6425C67.0261 62.5438 66.9014 62.4658 66.7507 62.4087C66.6 62.3541 66.4285 62.3255 66.2337 62.3255H65.0075V66.0977H65.5271V64.6195H66.1428L67.0338 66.0977H67.6521V66.0951ZM69.1407 64.2662C69.0394 66.1652 67.6054 67.1914 66.096 67.259C64.3606 67.1966 62.9291 65.747 63.0694 64.0557C63.2097 62.3463 64.3944 61.1799 66.2051 61.1799C67.8262 61.1773 69.2239 62.6711 69.1407 64.2662ZM69.7149 64.287C69.7487 62.219 68.3198 60.6395 66.1038 60.5927C64.2125 60.5538 62.5473 62.0294 62.4953 64.1623C62.4485 66.1341 64.0852 67.7915 66.0726 67.8253C68.1172 67.763 69.6811 66.3419 69.7149 64.287Z" fill="#0033E9"/>
</svg>
