<svg width="4" height="20" viewBox="0 0 4 20" fill="none" xmlns="http://www.w3.org/2000/svg">
<path fill-rule="evenodd" clip-rule="evenodd" d="M4 2.00012C4 3.10469 3.10457 4.00012 2 4.00012C0.895431 4.00012 0 3.10469 0 2.00012C0 0.895553 0.895431 0.00012207 2 0.00012207C3.10457 0.00012207 4 0.895553 4 2.00012ZM4 10.0001C4 11.1047 3.10457 12.0001 2 12.0001C0.895431 12.0001 0 11.1047 0 10.0001C0 8.89555 0.895431 8.00012 2 8.00012C3.10457 8.00012 4 8.89555 4 10.0001ZM2 20.0001C3.10457 20.0001 4 19.1047 4 18.0001C4 16.8956 3.10457 16.0001 2 16.0001C0.895431 16.0001 0 16.8956 0 18.0001C0 19.1047 0.895431 20.0001 2 20.0001Z" fill="#C4C4C4"/>
</svg>
