<svg width="36" height="33" viewBox="0 0 36 33" fill="none" xmlns="http://www.w3.org/2000/svg">
<path d="M26.6257 26.2507C29.0271 26.2507 31.1632 24.7131 31.9388 22.4241L31.9913 22.2516C32.1742 21.6454 32.2508 21.1356 32.2508 20.6256V10.3982L35.8899 22.5455C36.3579 24.3322 35.2914 26.1845 33.5019 26.6781L10.3068 32.8899C10.0173 32.9649 9.72782 33.0009 9.44272 33.0009C7.94882 33.0009 6.58374 32.0093 6.20113 30.5481L4.84978 26.2507H26.6257Z" fill="currentColor"/>
<path d="M22.5003 10.5004C20.8458 10.5004 19.5004 9.15486 19.5004 7.50028C19.5004 5.8457 20.8458 4.50012 22.5003 4.50012C24.1549 4.50012 25.5005 5.8457 25.5005 7.50028C25.5005 9.15486 24.1549 10.5004 22.5003 10.5004Z" fill="currentColor"/>
<path d="M3.75048 0H26.251C28.3178 0 30.001 1.68314 30.001 3.75027V20.2505C30.001 22.3176 28.3178 24.0007 26.251 24.0007H3.75048C1.68336 24.0007 0.000213623 22.3176 0.000213623 20.2505V3.75027C0.000213623 1.68314 1.68336 0 3.75048 0ZM26.251 3.00016H3.75048C3.33629 3.00016 3.00037 3.33607 3.00037 3.75027V14.399L7.73888 8.86974C8.24152 8.28031 8.9691 7.96527 9.75052 7.94741C10.5275 7.95181 11.2565 8.29679 11.7545 8.89391L17.3258 15.5809L19.1407 13.7703C20.1666 12.7444 21.8363 12.7444 22.8608 13.7703L27.0008 17.9089V3.75027C27.0008 3.33607 26.6649 3.00016 26.251 3.00016Z" fill="currentColor"/>
</svg>
