<svg width="36" height="33" viewBox="0 0 36 33" fill="none" xmlns="http://www.w3.org/2000/svg">
<path d="M9.37428 26.2507C6.97289 26.2507 4.83683 24.7131 4.06117 22.4241L4.00871 22.2516C3.82579 21.6454 3.74916 21.1356 3.74916 20.6256V10.3982L0.110127 22.5455C-0.357901 24.3322 0.708621 26.1845 2.49806 26.6781L25.6932 32.8899C25.9827 32.9649 26.2722 33.0009 26.5573 33.0009C28.0512 33.0009 29.4163 32.0093 29.7989 30.5481L31.1502 26.2507H9.37428Z" fill="currentColor"/>
<path d="M13.4995 10.5003C15.1541 10.5003 16.4994 9.15474 16.4994 7.50016C16.4994 5.84558 15.1541 4.5 13.4995 4.5C11.845 4.5 10.4994 5.84558 10.4994 7.50016C10.4994 9.15474 11.845 10.5003 13.4995 10.5003Z" fill="currentColor"/>
<path d="M32.2497 0H9.74917C7.68232 0 5.99918 1.68314 5.99918 3.75027V20.2505C5.99918 22.3176 7.68232 24.0007 9.74917 24.0007H32.2497C34.3168 24.0007 35.9999 22.3176 35.9999 20.2505V3.75027C35.9999 1.68314 34.3168 0 32.2497 0ZM9.74917 3.00016H32.2497C32.6639 3.00016 32.9998 3.33607 32.9998 3.75027V14.399L28.2613 8.86974C27.7586 8.28031 27.0311 7.96527 26.2496 7.94741C25.4726 7.95181 24.7437 8.29679 24.2457 8.89391L18.6744 15.5809L16.8594 13.7703C15.8335 12.7444 14.1639 12.7444 13.1394 13.7703L8.99934 17.9089V3.75027C8.99934 3.33607 9.33525 3.00016 9.74917 3.00016Z" fill="currentColor"/>
</svg>
