<svg width="43" height="43" viewBox="0 0 43 43" fill="none" xmlns="http://www.w3.org/2000/svg">
<path d="M40.0344 20.9984C40.0344 18.5684 40.0439 16.1383 40.0303 13.7082C40.0221 12.3369 40.0234 10.9616 39.9348 9.59438C39.8147 7.73873 39.0192 6.13959 37.7748 4.79015C36.1061 2.97953 34.0008 2.02168 31.5379 2.01076C24.612 1.98074 17.6847 1.99576 10.7587 2.00121C9.83908 2.00258 8.92899 2.10627 8.04346 2.38599C6.20009 2.96861 4.71011 4.0397 3.5858 5.61018C2.50243 7.12336 1.99486 8.82756 1.99213 10.6764C1.98394 17.5341 1.98258 24.3932 1.99076 31.2509C1.99213 33.0193 2.40556 34.6757 3.41115 36.1643C5.10171 38.6681 7.47585 40.0011 10.464 40.0257C17.5141 40.0816 24.567 40.0489 31.6184 40.0271C32.2911 40.0257 32.9801 39.9234 33.631 39.7528C35.4716 39.2725 36.9875 38.2669 38.1801 36.7729C38.9346 35.8273 39.4749 34.7658 39.7506 33.606C39.9443 32.7873 40.0139 31.9236 40.0207 31.079C40.0507 27.7211 40.0344 24.3605 40.0344 20.9984ZM21.033 0.0159374C24.541 0.0159374 28.0504 -0.0263582 31.5584 0.0268553C35.2902 0.0827978 38.2074 1.72287 40.2963 4.80925C41.4848 6.5653 42.0155 8.52738 42.0142 10.6423C42.0114 17.5573 42.0114 24.471 42.0169 31.386C42.0183 34.0576 41.1546 36.4126 39.4094 38.4238C38.0818 39.9548 36.4227 41.0026 34.4742 41.5907C33.4454 41.9018 32.4003 42.0301 31.3278 42.0287C24.4592 42.0233 17.5892 42.0137 10.7205 42.0355C9.0286 42.041 7.41718 41.7135 5.91765 40.9685C3.95694 39.9943 2.40965 38.5466 1.33992 36.6146C0.413459 34.9418 -0.00406355 33.153 2.97959e-05 31.2427C0.0123098 24.4082 0.00958228 17.5723 0.00139558 10.7378C-0.00269777 7.90246 0.931949 5.43144 2.85446 3.35475C4.14796 1.95755 5.72253 0.990158 7.56045 0.449836C8.637 0.133283 9.72992 0.0077537 10.8474 0.0104826C14.2422 0.0186693 17.6369 0.01321 21.0317 0.01321V0.0159374H21.033Z" fill="currentColor"/>
<path d="M25.8946 25.5693C25.7923 25.8776 25.855 25.9963 26.1825 25.9991C26.9084 26.0032 27.6356 25.9991 28.3615 25.9991C28.5512 25.9991 28.7395 25.9991 28.9837 25.9991C28.9387 26.1969 28.9196 26.3388 28.8745 26.4725C28.6603 27.1275 28.4338 27.7783 28.221 28.4332C27.7925 29.754 27.3723 31.0775 26.9425 32.3983C26.6887 33.1802 26.4213 33.9593 26.1675 34.7411C26.0324 35.16 26.087 35.2323 26.5386 35.235C27.5483 35.2432 28.558 35.25 29.569 35.2459C30.1025 35.2446 30.1121 35.2132 30.2649 34.7056C30.4791 33.992 30.7097 33.2852 30.9403 32.5771C31.261 31.5892 31.5898 30.6027 31.9118 29.6149C32.2775 28.496 32.6391 27.3758 33.0006 26.2542C33.0661 26.0495 33.1944 25.9895 33.4072 25.9922C34.1222 26.0059 34.8372 25.9909 35.5522 25.9991C35.7623 26.0018 35.8851 25.9418 35.9533 25.7262C36.2753 24.7138 36.6178 23.7082 36.9398 22.6957C37.0653 22.3014 37.0162 22.2332 36.596 22.225C35.8701 22.21 35.1428 22.2154 34.4169 22.2154C32.0455 22.2154 29.6755 22.2127 27.3041 22.2277C27.1758 22.2291 27.0025 22.3382 26.9302 22.4501C26.8224 22.6152 26.7842 22.8267 26.7214 23.0205C26.4458 23.8719 26.177 24.7233 25.8946 25.5693ZM14.365 34.8434C14.2736 35.1177 14.324 35.2323 14.6119 35.2337C15.7472 35.2378 16.881 35.25 18.0162 35.2323C18.139 35.2309 18.3287 35.0808 18.371 34.958C18.6425 34.1803 18.8854 33.393 19.1283 32.6071C19.7382 30.6409 20.3413 28.6734 20.9512 26.7086C21.0208 26.4834 21.1149 26.2651 21.1981 26.0427C21.2404 26.0523 21.2827 26.0618 21.325 26.07C21.3332 26.1669 21.3496 26.2624 21.3496 26.3593C21.3632 27.5286 21.3728 28.6979 21.3892 29.8659C21.411 31.4773 21.4369 33.0887 21.4642 34.6988C21.4724 35.2118 21.4997 35.2405 22.0073 35.2432C22.9487 35.25 23.8916 35.2514 24.833 35.2473C25.3174 35.2446 25.342 35.2159 25.327 34.7138C25.2656 32.6276 25.2028 30.54 25.14 28.4537C25.0814 26.5257 25.0159 24.5978 24.9668 22.6684C24.9599 22.3683 24.874 22.24 24.5574 22.2414C22.6513 22.2523 20.7438 22.2577 18.8376 22.2468C18.5429 22.2455 18.4078 22.3533 18.3273 22.6207C18.1841 23.0955 18.0081 23.5594 17.858 24.0315C17.3395 25.6566 16.8346 27.2844 16.3107 28.9067C15.6721 30.8893 15.024 32.8677 14.365 34.8434ZM5.20679 30.5263C5.41692 32.0586 6.20284 33.2689 7.45404 34.1844C9.02589 35.3346 10.8283 35.3046 12.6417 35.2187C12.7399 35.2146 12.8791 35.0576 12.9173 34.9444C13.242 33.9675 13.5395 32.981 13.8629 32.0026C14.0211 31.5251 14.0061 31.4801 13.4986 31.476C12.613 31.4705 11.7261 31.4937 10.842 31.4664C10.2116 31.4473 9.63989 31.2467 9.23874 30.7132C8.88671 30.2452 8.87307 29.6995 8.90855 29.1523C8.98632 27.9366 9.52255 26.9856 10.6086 26.4002C10.9334 26.2242 11.2936 26.0495 11.7289 26.1519C11.4792 26.9173 11.2418 27.6364 11.0125 28.3568C10.8993 28.713 10.9689 28.803 11.3441 28.8044C12.3429 28.8057 13.343 28.7989 14.3418 28.8085C14.5574 28.8098 14.6638 28.7498 14.732 28.5328C15.0472 27.5436 15.387 26.5612 15.7103 25.5734C16.016 24.6387 16.3161 23.7027 16.6095 22.764C16.7446 22.3314 16.6791 22.2441 16.2493 22.2441C14.8207 22.2441 13.3908 22.2277 11.9635 22.2564C10.5855 22.285 9.2824 22.6507 8.16628 23.4639C5.76622 25.2118 4.80564 27.6023 5.20679 30.5263ZM20.273 7.89827C20.4395 7.41116 20.3849 7.31701 19.8651 7.31565C17.2535 7.31019 14.642 7.2829 12.0304 7.31565C10.8938 7.32929 9.7777 7.55716 8.76528 8.11931C7.24392 8.96254 6.31882 10.2301 6.06367 11.9684C5.81261 13.6849 6.31336 15.1394 7.54955 16.351C8.13354 16.9227 8.84169 17.2448 9.61669 17.4644C10.2648 17.6473 10.3958 17.6104 10.6114 16.9923C10.8911 16.19 11.1572 15.3836 11.4164 14.5759C11.5651 14.1147 11.5051 14.0328 11.0507 13.996C10.3644 13.9387 9.87048 13.5239 9.79817 12.9658C9.67537 12.0312 10.2675 11.5195 10.7819 11.334C11.7111 10.9983 12.6649 11.2139 13.6759 11.1416C13.635 11.3203 13.62 11.4186 13.5886 11.5127C13.3785 12.1458 13.1615 12.7775 12.9555 13.412C12.4657 14.9184 11.9799 16.4261 11.4928 17.9324C11.28 18.5901 11.063 19.245 10.8597 19.9068C10.7506 20.2616 10.8242 20.3475 11.2049 20.3489C12.2719 20.3516 13.3403 20.3475 14.4073 20.3571C14.6542 20.3598 14.7975 20.2984 14.878 20.0351C15.2109 18.9558 15.5657 17.882 15.9164 16.8081C16.5058 15.0016 17.0939 13.1964 17.6983 11.3954C17.7365 11.2835 17.9044 11.1607 18.0272 11.1416C18.2823 11.102 18.5484 11.1197 18.809 11.132C19.0873 11.1457 19.2361 11.0488 19.3248 10.7636C19.6236 9.80032 19.9469 8.84793 20.273 7.89827ZM25.578 7.72772C25.6804 7.40571 25.619 7.32656 25.2669 7.32384C24.1767 7.31701 23.0865 7.3252 21.9963 7.31292C21.7276 7.31019 21.6048 7.43845 21.5365 7.66904C21.4342 8.01561 21.3373 8.36355 21.2241 8.70602C20.7451 10.1564 20.2553 11.6014 19.7805 13.0532C19.0355 15.3332 18.3001 17.6172 17.5592 19.9C17.4527 20.2274 17.5305 20.3448 17.873 20.3489C18.4174 20.353 18.9632 20.3502 19.5076 20.3502C19.8487 20.3502 20.1885 20.3502 20.5296 20.3502C21.4424 20.3502 21.4629 20.3584 21.7589 19.4975C22.1887 18.2476 22.5885 16.9882 22.9965 15.7316C23.4222 14.4203 23.8411 13.1077 24.2641 11.7965C24.7034 10.4389 25.1455 9.08534 25.578 7.72772ZM33.3445 12.6779C33.0934 13.6385 32.3621 14.318 31.246 14.3139C31.0754 14.3139 30.9062 14.3139 30.7356 14.3139V14.3276C30.4409 14.3276 30.1462 14.3303 29.8515 14.3262C29.6591 14.3235 29.5881 14.2457 29.6564 14.0438C29.9552 13.1555 30.2526 12.2672 30.531 11.3735C30.5965 11.1607 30.7152 11.1197 30.9021 11.1211C31.3565 11.1266 31.8095 11.1361 32.2638 11.1279C33.2353 11.1129 33.5341 11.9534 33.3445 12.6779ZM36.5605 9.82351C35.6095 8.13841 34.0963 7.37842 32.212 7.32247C30.8748 7.28291 29.5349 7.3252 28.195 7.31156C27.8389 7.30746 27.7025 7.47666 27.6111 7.78639C27.4091 8.47953 27.1854 9.16584 26.9602 9.85216C26.4458 11.4267 25.9219 12.9999 25.4075 14.5745C24.9231 16.059 24.4414 17.5436 23.9639 19.0308C23.8315 19.4429 23.7115 19.8604 23.5818 20.2902C23.7142 20.3216 23.7674 20.3448 23.822 20.3448C25.0022 20.3475 26.1825 20.3543 27.3627 20.3393C27.461 20.338 27.6097 20.222 27.6465 20.1251C27.8457 19.5971 28.0409 19.0636 28.1923 18.5205C28.2783 18.2135 28.4174 18.1166 28.7367 18.1098C29.9456 18.0853 31.1573 18.0539 32.3634 17.9693C33.1303 17.9147 33.8275 17.5831 34.4729 17.1752C35.7104 16.392 36.5182 15.2663 36.9275 13.8732C37.3355 12.4855 37.2877 11.1102 36.5605 9.82351Z" fill="currentColor"/>
<path d="M34.9805 33.6184C34.9395 33.647 34.8918 33.6675 34.8358 33.6811C34.7799 33.6948 34.7199 33.7016 34.6544 33.7016H34.4156V32.9662H34.7021C34.8358 32.9662 34.9382 32.9962 35.0091 33.0576C35.0787 33.119 35.1142 33.2131 35.1142 33.34C35.1142 33.4055 35.1019 33.4601 35.0773 33.5065C35.0528 33.5529 35.0214 33.5897 34.9805 33.6184ZM35.5317 34.714L35.0105 33.8844C35.061 33.864 35.1101 33.8367 35.1592 33.8039C35.2083 33.7712 35.252 33.733 35.2902 33.688C35.3284 33.6429 35.3584 33.5897 35.3816 33.5297C35.4048 33.4697 35.4157 33.4014 35.4157 33.325C35.4157 33.2391 35.4021 33.1599 35.3748 33.0876C35.3475 33.0153 35.3079 32.9525 35.2547 32.9007C35.2029 32.8488 35.1374 32.8079 35.0582 32.7779C34.9791 32.7492 34.889 32.7342 34.7867 32.7342H34.1427V34.7154H34.4156V33.939H34.739L35.207 34.7154H35.5317V34.714ZM36.3135 33.7535C36.2603 34.7509 35.5071 35.2898 34.7144 35.3253C33.8029 35.2926 33.0511 34.5312 33.1248 33.6429C33.1985 32.7451 33.8207 32.1325 34.7717 32.1325C35.6231 32.1311 36.3572 32.9157 36.3135 33.7535ZM36.6151 33.7644C36.6328 32.6783 35.8824 31.8487 34.7185 31.8241C33.7252 31.8037 32.8506 32.5787 32.8233 33.6989C32.7987 34.7345 33.6583 35.605 34.7021 35.6228C35.7759 35.59 36.5973 34.8437 36.6151 33.7644Z" fill="currentColor"/>
</svg>
