<svg width="24" height="24" viewBox="0 0 24 24" fill="none" xmlns="http://www.w3.org/2000/svg">
<path d="M7.98311 18L7.20674 15.4512H3.30293L2.52656 18H0.0802736L3.85957 7.24805H6.63545L10.4294 18H7.98311ZM6.66475 13.5469C5.94697 11.2373 5.5417 9.93115 5.44893 9.62842C5.36104 9.32568 5.29756 9.08643 5.2585 8.91064C5.09736 9.53564 4.63594 11.0811 3.87422 13.5469H6.66475ZM23.5608 18H15.5921V16.5278L20.7264 9.16699H15.7312V7.29199H23.4217V8.75684L18.2947 16.125H23.5608V18Z" fill="currentColor"/>
<path d="M15.9252 12.424L12.4141 9L11.0001 10.414L13.1002 12.428L10.9999 14.5L12.4139 15.914L15.9252 12.424Z" fill="currentColor"/>
</svg>
