<svg width="24" height="24" viewBox="0 0 24 24" fill="none" xmlns="http://www.w3.org/2000/svg">
<path d="M8.40791 18H0.43916V16.5278L5.57344 9.16699H0.578321V7.29199H8.26875V8.75684L3.1418 16.125H8.40791V18ZM21.4661 18L20.6897 15.4512H16.7859L16.0096 18H13.5633L17.3426 7.24805H20.1185L23.9124 18H21.4661ZM20.1478 13.5469C19.43 11.2373 19.0247 9.93115 18.9319 9.62842C18.844 9.32568 18.7806 9.08643 18.7415 8.91064C18.5804 9.53564 18.1189 11.0811 17.3572 13.5469H20.1478Z" fill="currentColor"/>
<path d="M13.9252 12.424L10.4141 9L9.00012 10.414L11.1002 12.428L8.99994 14.5L10.4139 15.914L13.9252 12.424Z" fill="currentColor"/>
</svg>
