<svg width="16" height="16" viewBox="0 0 16 16" fill="none" xmlns="http://www.w3.org/2000/svg">
<g clip-path="url(#clip0_572:50)">
<path d="M0.0322197 15.3875C-0.0146553 15.55 0.0322197 15.7281 0.150872 15.8469C0.238396 15.9343 0.360345 15.9844 0.482171 15.9844C0.525872 15.9844 0.569695 15.9781 0.610345 15.9656L4.979 14.7188L1.27905 11.0188L0.0322197 15.3875Z" fill="currentColor"/>
<path d="M0.48217 16C0.353996 16 0.23217 15.95 0.141594 15.8594C0.0165939 15.7344 -0.0302811 15.5531 0.0196457 15.3844L1.27587 10.9906L5.01342 14.7282L0.613396 15.9812C0.569695 15.9938 0.525871 16 0.48217 16ZM1.28844 11.0469L0.0478439 15.3906C0.00402066 15.5501 0.0478439 15.7188 0.163445 15.8344C0.247795 15.9187 0.363396 15.9656 0.48217 15.9656C0.52282 15.9656 0.566521 15.9594 0.60717 15.9469L4.95092 14.7063L1.28844 11.0469Z" fill="currentColor"/>
<path d="M15.5727 2.41248L13.5883 0.428101C13.3197 0.162476 12.9697 0.015625 12.5915 0.015625C12.2165 0.015625 11.8634 0.162476 11.5977 0.425049L10.604 1.4187L14.5759 5.39062L15.5697 4.39685C15.8353 4.13123 15.979 3.77808 15.979 3.40308C15.9821 3.02808 15.8353 2.6781 15.5727 2.41248Z" fill="currentColor"/>
<path d="M14.5791 5.41248L10.5853 1.4187L11.5884 0.415649C11.8572 0.146851 12.2134 0 12.5916 0C12.9728 0 13.3291 0.146851 13.5947 0.415649L15.5791 2.40002C15.8478 2.6687 15.9946 3.02502 15.9946 3.40308C15.9946 3.78442 15.8478 4.14062 15.5791 4.40625L14.5791 5.41248ZM10.629 1.4187L14.5791 5.36877L15.5603 4.38745C15.8228 4.125 15.9666 3.77808 15.9666 3.40625C15.9666 3.03442 15.8228 2.6875 15.5603 2.42505L13.5759 0.4375C13.3135 0.175049 12.9634 0.03125 12.5916 0.03125C12.2197 0.03125 11.8728 0.175049 11.6104 0.4375L10.629 1.4187Z" fill="currentColor"/>
<path d="M1.80641 10.2192L9.9446 2.08093L13.9176 6.05396L5.77943 14.1923L1.80641 10.2192Z" fill="currentColor"/>
<path d="M5.77905 14.2156L1.78223 10.2188L9.9447 2.05933L13.9385 6.0531L5.77905 14.2156ZM1.8291 10.2188L5.77905 14.1687L13.8947 6.0531L9.9447 2.10315L1.8291 10.2188Z" fill="currentColor"/>
</g>
<defs>
<clipPath id="clip0_572:50">
<rect width="16" height="16" fill="white"/>
</clipPath>
</defs>
</svg>
