<svg width="20" height="20" viewBox="0 0 20 20" fill="none" xmlns="http://www.w3.org/2000/svg">
<path d="M12.5 15.8751C12.5 14.4944 13.6193 13.3751 15 13.3751V12.3751C13.067 12.3751 11.5 13.9421 11.5 15.8751H12.5ZM15 13.3751C16.3807 13.3751 17.5 14.4944 17.5 15.8751H18.5C18.5 13.9421 16.933 12.3751 15 12.3751V13.3751ZM16.75 10.25C16.75 11.2165 15.9665 12 15 12V13C16.5188 13 17.75 11.7688 17.75 10.25H16.75ZM15 12C14.0335 12 13.25 11.2165 13.25 10.25H12.25C12.25 11.7688 13.4812 13 15 13V12ZM13.25 10.25C13.25 9.28351 14.0335 8.5 15 8.5V7.5C13.4812 7.5 12.25 8.73121 12.25 10.25H13.25ZM15 8.5C15.9665 8.5 16.75 9.28351 16.75 10.25H17.75C17.75 8.73121 16.5188 7.5 15 7.5V8.5ZM2.5 15.9565C2.5 13.9275 4.14487 12.2826 6.17391 12.2826V11.2826C3.59258 11.2826 1.5 13.3752 1.5 15.9565H2.5ZM6.17391 12.2826C8.20296 12.2826 9.84783 13.9275 9.84783 15.9565H10.8478C10.8478 13.3752 8.75525 11.2826 6.17391 11.2826V12.2826ZM8.8045 8.13044C8.8045 9.58318 7.62681 10.7609 6.17404 10.7609V11.7609C8.17908 11.7609 9.8045 10.1355 9.8045 8.13044H8.8045ZM6.17404 10.7609C4.72127 10.7609 3.54358 9.58318 3.54358 8.13044H2.54358C2.54358 10.1355 4.16899 11.7609 6.17404 11.7609V10.7609ZM3.54358 8.13044C3.54358 6.67769 4.72127 5.5 6.17404 5.5V4.5C4.16899 4.5 2.54358 6.1254 2.54358 8.13044H3.54358ZM6.17404 5.5C7.62681 5.5 8.8045 6.67769 8.8045 8.13044H9.8045C9.8045 6.1254 8.17908 4.5 6.17404 4.5V5.5Z" fill="currentColor"/>
</svg>
