<svg width="24" height="24" viewBox="0 0 24 24" fill="none" xmlns="http://www.w3.org/2000/svg">
<path d="M7 7C7 4.23858 9.23858 2 12 2C14.7614 2 17 4.23858 17 7C17 9.76142 14.7614 12 12 12C9.23858 12 7 9.76142 7 7ZM12 10C13.6569 10 15 8.65685 15 7C15 5.34315 13.6569 4 12 4C10.3431 4 9 5.34315 9 7C9 8.65685 10.3431 10 12 10Z" fill="currentColor"/>
<path d="M6.34315 15.3431C4.84285 16.8434 4 18.8783 4 21H6C6 19.4087 6.63214 17.8826 7.75736 16.7574C8.88258 15.6321 10.4087 15 12 15C13.5913 15 15.1174 15.6321 16.2426 16.7574C17.3679 17.8826 18 19.4087 18 21H20C20 18.8783 19.1571 16.8434 17.6569 15.3431C16.1566 13.8429 14.1217 13 12 13C9.87827 13 7.84344 13.8429 6.34315 15.3431Z" fill="currentColor"/>
</svg>
