<svg width="59" height="24" viewBox="0 0 59 24" fill="none" xmlns="http://www.w3.org/2000/svg">
<path d="M15.4897 6.61341C12.7992 8.31452 12.7732 12.4805 16.0235 14.1599C16.0061 14.2293 15.9931 14.3031 15.9714 14.3725C15.7024 15.2448 15.3248 16.0693 14.7997 16.8157C14.5307 17.1976 14.2616 17.5838 13.9665 17.9527C13.7799 18.1827 13.5673 18.391 13.3416 18.5906C12.682 19.1721 11.9183 19.3066 11.0851 19.0506C10.8464 18.9768 10.612 18.8814 10.3864 18.7816C9.37527 18.3433 8.36849 18.3389 7.35738 18.7772C6.99719 18.9334 6.637 19.081 6.24644 19.1374C5.73003 19.2155 5.25268 19.1374 4.79269 18.89C4.4542 18.7034 4.15043 18.4691 3.89006 18.1827C3.64704 17.9093 3.40402 17.6272 3.19573 17.3278C2.08046 15.7005 1.295 13.9343 0.943496 11.9858C0.726517 10.7881 0.678779 9.59035 0.973869 8.39697C1.38179 6.73058 2.37989 5.55455 3.98119 4.92532C4.8708 4.57381 5.77777 4.54343 6.6804 4.92532C6.96681 5.04682 7.25756 5.16399 7.54831 5.27682C7.73925 5.35059 7.9302 5.42003 8.12114 5.48512C8.39019 5.57626 8.65925 5.57191 8.92396 5.46343C9.21905 5.34192 9.51847 5.22041 9.81356 5.09456C10.3864 4.85588 10.9679 4.65192 11.5971 4.6389C12.4043 4.62155 13.1898 4.73438 13.9145 5.11626C14.5741 5.46776 15.0905 5.96247 15.4897 6.61341Z" fill="currentColor"/>
<path d="M23.7351 13.0751C23.7351 15.1147 23.7351 17.124 23.7351 19.1505C22.8325 19.1505 21.9516 19.1505 21.0576 19.1505C21.0576 13.2574 21.0576 7.36861 21.0576 1.44944C21.1184 1.4451 21.1835 1.43208 21.2486 1.43642C23.44 1.49283 25.6272 1.54491 27.8187 1.60566C28.6388 1.62736 29.4373 1.77056 30.1924 2.10471C31.503 2.68187 32.4403 3.6279 32.961 4.96015C33.5122 6.36183 33.5773 7.80256 33.1129 9.23896C32.488 11.1787 31.1254 12.3504 29.1769 12.8755C28.6302 13.0231 28.0704 13.0795 27.5062 13.0795C26.3475 13.0795 25.1889 13.0795 24.0302 13.0795C23.9478 13.0751 23.861 13.0751 23.7351 13.0751ZM23.7525 10.9097C23.8219 10.914 23.8697 10.9227 23.9131 10.9227C24.8981 10.9227 25.8876 10.9357 26.8726 10.9184C27.2285 10.914 27.593 10.875 27.9445 10.7969C29.2247 10.5148 30.0796 9.75537 30.405 8.46652C30.5916 7.72445 30.5916 6.97371 30.4094 6.23164C30.136 5.1077 29.4373 4.36129 28.3394 3.99243C27.8621 3.83186 27.363 3.76243 26.8596 3.76243C25.8962 3.75809 24.9329 3.76243 23.9695 3.76243C23.9 3.76243 23.8306 3.77111 23.7481 3.77545C23.7525 6.15353 23.7525 8.52293 23.7525 10.9097Z" fill="currentColor"/>
<path d="M44.6863 18.9769C43.8445 18.9769 43.0286 18.9769 42.1781 18.9769C42.1781 18.3043 42.1781 17.636 42.1781 16.972C42.1607 16.9677 42.1477 16.9634 42.1303 16.959C42.0956 17.0154 42.0609 17.0719 42.0262 17.1283C41.3058 18.2956 40.247 18.9466 38.8974 19.1288C38.1596 19.2286 37.4263 19.1766 36.7146 18.9683C35.3302 18.556 34.4537 17.623 34.0023 16.2734C33.8722 15.8785 33.7506 15.4792 33.7637 15.0583C33.8114 13.7087 34.4233 12.7193 35.647 12.1247C36.2632 11.821 36.9229 11.6387 37.5998 11.5693C38.4808 11.4825 39.3617 11.4348 40.2426 11.3783C40.8111 11.3436 41.3839 11.3176 41.9437 11.2872C41.9611 11.2612 41.9785 11.2482 41.9828 11.2395C41.9871 10.7621 42.0349 10.2848 41.9394 9.81176C41.8135 9.18252 41.4534 8.72252 40.8588 8.49253C40.0083 8.16272 39.1447 8.14102 38.2942 8.49253C37.5955 8.77894 37.2353 9.21724 36.9749 10.0287C36.1548 10.0287 35.3302 10.0287 34.4927 10.0287C34.458 9.8161 34.497 9.6078 34.5318 9.40384C34.6793 8.57932 35.0872 7.898 35.7165 7.35122C36.4021 6.75236 37.2049 6.40086 38.0902 6.23595C39.4528 5.97992 40.8024 6.04501 42.1086 6.53972C42.9418 6.85217 43.6362 7.3599 44.1222 8.12366C44.5171 8.74422 44.695 9.42988 44.695 10.1546C44.7037 13.0447 44.6994 15.9305 44.6994 18.8207C44.695 18.8554 44.6907 18.9032 44.6863 18.9769ZM42.139 13.2661C42.1173 13.2661 42.087 13.2617 42.0566 13.2617C40.9804 13.3225 39.9041 13.3789 38.8236 13.444C38.3376 13.4744 37.8602 13.5698 37.4349 13.8259C36.3804 14.4638 36.35 15.9262 37.3785 16.5988C37.5521 16.7117 37.7517 16.7941 37.9513 16.8636C38.4026 17.0198 38.8713 17.0285 39.3443 16.9937C39.8781 16.9547 40.3945 16.8332 40.8675 16.5685C41.5619 16.1779 42.0262 15.6051 42.126 14.8066C42.1867 14.3075 42.152 13.7955 42.1564 13.2877C42.1564 13.2877 42.1477 13.2834 42.139 13.2661Z" fill="currentColor"/>
<path d="M47.5681 23.7939C47.5681 23.0996 47.5681 22.4009 47.5681 21.6675C47.6679 21.6675 47.7591 21.6719 47.8502 21.6675C48.2017 21.6502 48.5575 21.6588 48.9004 21.6111C49.5079 21.5243 49.9679 21.1858 50.276 20.6564C50.4973 20.2788 50.5928 19.8579 50.7056 19.4456C50.7577 19.2547 50.7403 19.0855 50.6752 18.9032C49.1868 14.7936 47.7026 10.6797 46.2185 6.57016C46.1881 6.48337 46.1621 6.39658 46.123 6.28809C47.0821 6.28809 48.0194 6.28809 48.9872 6.28809C50.0504 9.70766 51.1135 13.1403 52.1811 16.5729C52.589 15.4446 52.9318 14.3033 53.2877 13.1663C53.6478 12.0163 54.0037 10.8663 54.3595 9.71635C54.7154 8.57504 55.0669 7.43373 55.4227 6.28809C56.3167 6.28809 57.1976 6.28809 58.1003 6.28809C58.0786 6.3662 58.0655 6.42695 58.0482 6.47903C56.4165 11.0182 54.7805 15.5617 53.1445 20.0966C52.9362 20.6781 52.6758 21.2422 52.3503 21.7673C52.116 22.1492 51.8426 22.5007 51.5084 22.8045C50.9617 23.3035 50.3064 23.5856 49.586 23.7245C48.9351 23.846 48.2798 23.8373 47.6202 23.8243C47.6115 23.8199 47.5985 23.8069 47.5681 23.7939Z" fill="currentColor"/>
<path d="M8.15543 4.46541C8.07298 4.10523 8.1077 3.7624 8.17713 3.42392C8.32902 2.68619 8.65448 2.03526 9.17089 1.48413C9.39655 1.24545 9.61786 1.00244 9.86956 0.794141C10.4163 0.347166 11.0499 0.0954657 11.7486 0.00867436C11.8267 -4.7674e-06 11.9048 0 11.9829 0C12.0133 0 12.0437 0.0086786 12.0827 0.0130182C12.1695 0.507729 12.1175 0.980738 11.9829 1.45375C11.8831 1.79224 11.7399 2.11771 11.536 2.40412C10.898 3.31543 10.0562 3.9707 9.00165 4.33522C8.73693 4.43069 8.46354 4.48711 8.15543 4.46541Z" fill="currentColor"/>
</svg>
