<svg width="62" height="39" viewBox="0 0 62 39" fill="none" xmlns="http://www.w3.org/2000/svg">
<path d="M56.4477 0H5.55239C5.34041 0 5.12807 0 4.91647 0.00121455C4.73761 0.00246591 4.55916 0.00441655 4.38072 0.00920114C3.99153 0.0195432 3.59902 0.0421044 3.2147 0.109972C2.82425 0.179017 2.46091 0.291639 2.10645 0.468964C1.75798 0.643086 1.43896 0.870833 1.16249 1.1426C0.885898 1.41436 0.654111 1.72731 0.476937 2.07007C0.296429 2.41835 0.181735 2.77547 0.111951 3.15941C0.042509 3.53714 0.019394 3.92274 0.00890589 4.30474C0.00411133 4.48007 0.00205492 4.65541 0.000889989 4.83071C-0.000346107 5.03906 6.59251e-05 5.24726 6.59251e-05 5.45598V33.5444C6.59251e-05 33.7531 -0.000346107 33.961 0.000889989 34.1697C0.00205492 34.345 0.00411133 34.5204 0.00890589 34.6957C0.019394 35.0774 0.042509 35.463 0.111951 35.8406C0.181735 36.2247 0.296429 36.5816 0.476937 36.93C0.654111 37.2727 0.885898 37.5861 1.16249 37.8574C1.43896 38.1296 1.75798 38.3574 2.10645 38.531C2.46091 38.7088 2.82425 38.8215 3.2147 38.8905C3.59902 38.9579 3.99153 38.9809 4.38072 38.9912C4.55916 38.9952 4.73761 38.9976 4.91647 38.9984C5.12807 39 5.34041 39 5.55239 39H56.4477C56.6593 39 56.8716 39 57.0832 38.9984C57.2616 38.9976 57.4401 38.9952 57.6193 38.9912C58.0077 38.9809 58.4001 38.9579 58.7854 38.8905C59.1753 38.8215 59.5387 38.7088 59.8932 38.531C60.2421 38.3574 60.5602 38.1296 60.8372 37.8574C61.1133 37.5861 61.3451 37.2727 61.5228 36.93C61.7037 36.5816 61.8183 36.2247 61.8877 35.8406C61.9572 35.463 61.9797 35.0774 61.9903 34.6957C61.9951 34.5204 61.9975 34.345 61.9984 34.1697C62 33.961 62 33.7531 62 33.5444V5.45598C62 5.24726 62 5.03906 61.9984 4.83071C61.9975 4.65541 61.9951 4.48007 61.9903 4.30474C61.9797 3.92274 61.9572 3.53714 61.8877 3.15941C61.8183 2.77547 61.7037 2.41835 61.5228 2.07007C61.3451 1.72731 61.1133 1.41436 60.8372 1.1426C60.5602 0.870833 60.2421 0.643086 59.8932 0.468964C59.5387 0.291639 59.1753 0.179017 58.7854 0.109972C58.4002 0.0421044 58.0077 0.0195432 57.6193 0.00920114C57.4401 0.00441655 57.2616 0.00246591 57.0832 0.00121455C56.8716 0 56.6593 0 56.4477 0Z" fill="currentColor"/>
<path d="M56.4479 1.30005L57.074 1.30123C57.2436 1.3024 57.4132 1.30421 57.5838 1.30877C57.8804 1.31665 58.2275 1.33244 58.551 1.38941C58.8321 1.43917 59.068 1.51484 59.2943 1.62805C59.5177 1.73961 59.7224 1.88579 59.9012 2.06117C60.0806 2.23772 60.2296 2.43919 60.3446 2.66116C60.4592 2.8818 60.5357 3.11242 60.5861 3.39073C60.6439 3.70512 60.6599 4.04703 60.668 4.34033C60.6726 4.50587 60.6748 4.67142 60.6757 4.84091C60.6773 5.04587 60.6772 5.25072 60.6772 5.45609V33.5445C60.6772 33.7499 60.6773 33.9544 60.6756 34.1637C60.6748 34.3292 60.6726 34.4948 60.668 34.6606C60.6599 34.9535 60.6439 35.2952 60.5853 35.6133C60.5357 35.8878 60.4592 36.1185 60.344 36.3402C60.2293 36.5616 60.0806 36.7629 59.9019 36.9383C59.7222 37.115 59.5181 37.2607 59.2921 37.3733C59.0674 37.486 58.832 37.5616 58.5536 37.6108C58.2235 37.6686 57.862 37.6845 57.5896 37.6917C57.4183 37.6955 57.2478 37.6978 57.0731 37.6986C56.865 37.7002 56.6561 37.7002 56.4479 37.7002H5.5526C5.54983 37.7002 5.54713 37.7002 5.54432 37.7002C5.33853 37.7002 5.13233 37.7002 4.92279 37.6986C4.75195 37.6978 4.58148 37.6956 4.41667 37.6919C4.13813 37.6845 3.77633 37.6686 3.44899 37.6112C3.16818 37.5616 2.93275 37.486 2.70516 37.3718C2.48121 37.2602 2.27732 37.1146 2.09749 36.9377C1.91904 36.7626 1.77075 36.562 1.65609 36.3402C1.54132 36.1187 1.46453 35.8874 1.41404 35.6096C1.35568 35.2921 1.33965 34.9518 1.33164 34.6609C1.32706 34.4943 1.32515 34.3278 1.32407 34.1623L1.32324 33.6736L1.32328 33.5445V5.45609L1.32324 5.32706L1.32403 4.83936C1.32515 4.67282 1.32706 4.50632 1.33164 4.33992C1.33965 4.04876 1.35568 3.70825 1.41453 3.38812C1.46457 3.11286 1.54132 2.8815 1.65669 2.65887C1.77045 2.43882 1.919 2.23794 2.09839 2.06172C2.27706 1.88609 2.48161 1.74008 2.707 1.62746C2.93215 1.5148 3.16802 1.43917 3.44884 1.38952C3.7724 1.3324 4.11967 1.31665 4.41708 1.30873C4.58661 1.30421 4.75614 1.3024 4.9244 1.30126L5.5526 1.30005H56.4479Z" fill="white"/>
<path d="M16.9254 13.1174C17.4563 12.465 17.8165 11.589 17.7215 10.6938C16.9444 10.7318 15.9961 11.1976 15.447 11.8505C14.9541 12.4097 14.5178 13.3223 14.6315 14.18C15.5039 14.2543 16.3754 13.7516 16.9254 13.1174Z" fill="currentColor"/>
<path d="M17.7114 14.3475C16.4445 14.2733 15.3674 15.054 14.7624 15.054C14.1571 15.054 13.2306 14.3849 12.2286 14.4029C10.9244 14.4217 9.71431 15.1463 9.0525 16.2986C7.69125 18.6039 8.69326 22.0235 10.017 23.901C10.6598 24.8299 11.4346 25.8526 12.4554 25.8159C13.4199 25.7787 13.7979 25.2022 14.9703 25.2022C16.1419 25.2022 16.4824 25.8159 17.5034 25.7973C18.5622 25.7787 19.2241 24.868 19.867 23.9382C20.6044 22.8793 20.9063 21.8569 20.9253 21.8008C20.9063 21.7822 18.8837 21.0198 18.8649 18.7336C18.8458 16.8194 20.4529 15.9089 20.5285 15.8524C19.621 14.5336 18.203 14.3849 17.7114 14.3475Z" fill="currentColor"/>
<path d="M28.7422 11.7568C31.4957 11.7568 33.413 13.6218 33.413 16.3369C33.413 19.0618 31.4562 20.9364 28.6731 20.9364H25.6245V25.7001H23.4219V11.7568H28.7422V11.7568ZM25.6245 19.1198H28.1519C30.0696 19.1198 31.1611 18.1053 31.1611 16.3466C31.1611 14.5881 30.0696 13.5832 28.1617 13.5832H25.6245V19.1198Z" fill="currentColor"/>
<path d="M33.9883 22.811C33.9883 21.0329 35.3749 19.9411 37.8336 19.8058L40.6656 19.6416V18.859C40.6656 17.7284 39.8887 17.052 38.5908 17.052C37.3613 17.052 36.5942 17.6317 36.4075 18.5401H34.4014C34.5194 16.7041 36.1124 15.3513 38.6694 15.3513C41.177 15.3513 42.7799 16.6558 42.7799 18.6946V25.7001H40.7441V24.0284H40.6952C40.0954 25.159 38.7873 25.8739 37.4303 25.8739C35.4045 25.8739 33.9883 24.6371 33.9883 22.811ZM40.6656 21.8931V21.0911L38.1185 21.2456C36.8499 21.3326 36.1321 21.8834 36.1321 22.753C36.1321 23.6419 36.8795 24.2217 38.0203 24.2217C39.5051 24.2217 40.6656 23.2167 40.6656 21.8931Z" fill="currentColor"/>
<path d="M44.7025 29.4396V27.7486C44.8595 27.7872 45.2135 27.7872 45.3907 27.7872C46.374 27.7872 46.9051 27.3814 47.2295 26.3379C47.2295 26.3185 47.4165 25.7195 47.4165 25.7098L43.6797 15.5349H45.9806L48.5967 23.8063H48.6358L51.252 15.5349H53.4941L49.6191 26.2314C48.7344 28.6956 47.7117 29.4879 45.5678 29.4879C45.3907 29.4879 44.8595 29.4685 44.7025 29.4396Z" fill="currentColor"/>
</svg>
