<svg width="50" height="45" viewBox="0 0 50 45" fill="none" xmlns="http://www.w3.org/2000/svg">
<path d="M0.00130556 31.5156C0.194488 31.5013 0.387669 31.4752 0.582157 31.4752C13.511 31.4739 26.4398 31.4739 39.3674 31.4739C39.5592 31.4739 39.7524 31.4739 40.0148 31.4739C40.0148 31.6971 40.0148 31.8694 40.0148 32.043C40.0148 34.7136 40.0174 37.3842 40.0135 40.0535C40.0096 42.7085 38.4041 44.314 35.757 44.314C25.2703 44.314 14.785 44.314 4.2983 44.314C1.99708 44.314 0.657863 43.288 0.0561273 41.0703C0.0482956 41.0416 0.0195793 41.0181 0 40.9933C0.00130528 37.8332 0.00130556 34.6744 0.00130556 31.5156ZM8.34077 40.7975C9.36672 40.7975 10.3914 40.8001 11.4173 40.7962C12.4106 40.7936 13.0816 40.2075 13.0894 39.3421C13.0972 38.4754 12.4237 37.8672 11.4408 37.8659C9.34061 37.8632 7.24041 37.8619 5.14151 37.8659C4.18996 37.8672 3.52818 38.4676 3.52166 39.3173C3.51513 40.1697 4.17691 40.7884 5.11802 40.7949C6.19096 40.8027 7.26521 40.7975 8.34077 40.7975Z" fill="currentColor"/>
<path d="M0.000976562 21.9403C0.195464 21.9285 0.388646 21.9063 0.583133 21.9063C13.5094 21.905 26.4356 21.905 39.3618 21.905C39.555 21.905 39.7469 21.905 39.9779 21.905C39.9779 24.1214 39.9779 26.2934 39.9779 28.5437C39.7534 28.5437 39.5328 28.5437 39.3122 28.5437C26.4343 28.5437 13.5577 28.5437 0.679724 28.545C0.45391 28.545 0.228096 28.5711 0.000976562 28.5842C0.000976563 26.3691 0.000976562 24.1553 0.000976562 21.9403Z" fill="currentColor"/>
<path d="M0.00130556 18.5204C0.077012 18.2932 0.150108 18.0648 0.231036 17.8403C0.764897 16.3588 2.12631 15.3564 3.71223 15.2767C3.85842 15.2689 4.00461 15.265 4.15211 15.265C14.7184 15.265 25.2847 15.2689 35.8509 15.2598C37.4094 15.2585 38.6325 15.8354 39.4587 17.172C39.7864 17.702 39.9861 18.2802 39.9717 18.9759C39.7133 18.9759 39.4901 18.9759 39.2656 18.9759C26.3876 18.9759 13.5084 18.9759 0.630453 18.9772C0.420302 18.9772 0.210151 18.9981 0 19.0085C0.00130528 18.8467 0.00130556 18.6835 0.00130556 18.5204Z" fill="currentColor"/>
<path d="M42.9409 29.8528C42.9409 29.5695 42.9409 29.3777 42.9409 29.1845C42.9409 25.8952 42.9527 22.6072 42.937 19.3178C42.9213 15.9711 40.8525 13.2848 37.7041 12.533C37.1259 12.3946 36.5124 12.3476 35.9159 12.3476C26.2933 12.3372 16.6708 12.3372 7.04953 12.3489C6.58484 12.3489 6.34206 12.2719 6.30812 11.7433C6.2533 10.8713 5.99094 9.9955 6.0549 9.13793C6.18673 7.3758 7.50637 6.03788 9.24632 5.73375C16.3732 4.48329 23.5013 3.24066 30.6295 1.99672C34.3613 1.34538 38.0931 0.686216 41.8288 0.0544582C43.8102 -0.281 45.6938 0.964241 46.1102 2.93783C46.5265 4.91011 46.8385 6.90328 47.1883 8.88862C48.089 13.9805 48.97 19.0764 49.8929 24.1631C50.1461 25.5597 49.9842 26.8167 49.0275 27.9092C48.5328 28.4744 47.9245 28.8999 47.1935 29.0553C45.8139 29.3503 44.4211 29.58 42.9409 29.8528Z" fill="currentColor"/>
</svg>
