<svg width="59" height="24" viewBox="0 0 59 24" fill="none" xmlns="http://www.w3.org/2000/svg">
<path d="M14.951 11.639C13.2716 11.639 11.5922 11.639 9.8508 11.639C9.8508 10.4182 9.8508 9.25313 9.8508 7.99512C10.4643 7.99512 11.0778 7.99512 11.6852 7.99512C13.8356 7.99512 15.9922 8.00751 18.1426 7.98892C18.6383 7.98273 18.88 8.08188 18.9482 8.65821C19.5307 13.6469 16.7978 18.2823 11.4063 19.2057C6.54154 20.0423 1.85031 17.0925 0.455957 12.5004C-0.566569 9.13539 0.152297 6.10499 2.39566 3.42783C4.44691 0.979968 7.11787 -0.0983349 10.266 0.00701629C12.4784 0.0813818 14.4057 0.942787 16.0045 2.37432C15.137 3.24192 14.2694 4.10952 13.4699 4.90895C12.5837 4.56191 11.6666 4.09092 10.6874 3.84923C8.17758 3.22332 5.17817 4.9957 4.28578 7.43117C3.05875 10.7714 4.62663 13.8824 7.16745 15.0289C9.31165 16.0018 11.4249 15.8221 13.3894 14.4897C14.2384 13.932 14.9139 12.6306 14.951 11.639Z" fill="currentColor"/>
<path d="M25.8516 1.45079C28.1073 1.45079 30.3693 1.26488 32.5816 1.50037C35.203 1.77924 36.9444 4.21471 36.7523 6.84229C36.5788 9.22819 34.3602 11.2546 31.8318 11.3166C30.549 11.3476 29.2662 11.3228 27.8842 11.3228C27.8842 13.6096 27.8842 15.8405 27.8842 18.1273C27.1592 18.1273 26.5332 18.1273 25.8516 18.1273C25.8516 12.5499 25.8516 6.97863 25.8516 1.45079ZM27.8904 3.34092C27.8904 5.37977 27.8904 7.31947 27.8904 9.33354C29.1918 9.33354 30.4498 9.35213 31.7017 9.32735C33.3005 9.29636 34.5337 8.10031 34.6081 6.54483C34.6825 4.8964 33.567 3.47725 31.9557 3.35951C30.6296 3.26655 29.291 3.34092 27.8904 3.34092Z" fill="currentColor"/>
<path d="M39.0019 9.61886C38.4566 9.27182 37.8988 8.91858 37.2977 8.54056C38.1095 7.35071 39.1878 6.68142 40.5388 6.46452C42.2182 6.19184 43.8419 6.27861 45.292 7.31353C46.2774 8.02 46.9157 9.00534 46.959 10.1642C47.052 12.798 46.99 15.4442 46.99 18.1213C46.3517 18.1213 45.7444 18.1213 45.0565 18.1213C45.0565 17.6503 45.0565 17.1794 45.0565 16.7022C44.9884 16.6588 44.9264 16.6216 44.8582 16.5782C44.5793 16.9005 44.3253 17.2537 44.0154 17.5388C41.865 19.5405 37.8555 18.4807 36.9941 15.692C36.3743 13.6842 37.5022 11.6887 39.6898 11.0566C41.3197 10.5856 42.9619 10.629 44.5608 11.2549C44.6537 11.2921 44.7405 11.3293 44.8396 11.354C44.883 11.3664 44.9388 11.3479 44.9884 11.3479C45.1805 10.1022 44.6971 9.13548 43.5754 8.54056C42.1253 7.79071 40.6876 8.11296 39.0019 9.61886ZM41.456 16.7456C43.154 16.7456 44.8334 15.3636 45.0131 13.8577C45.0689 13.3743 44.976 12.9839 44.474 12.8847C43.594 12.705 42.7016 12.5129 41.803 12.4757C41.2887 12.4509 40.7309 12.6493 40.2538 12.8785C39.2436 13.3619 38.7974 14.2729 39.0267 15.1591C39.2622 16.0515 40.3157 16.7456 41.456 16.7456Z" fill="currentColor"/>
<path d="M53.4107 14.9419C53.9188 13.6963 54.4208 12.4445 54.929 11.1989C55.4433 9.94085 55.9825 8.69523 56.4597 7.42482C56.6704 6.86088 56.9678 6.58201 57.5999 6.66258C58.0089 6.71835 58.4365 6.67497 59.0005 6.67497C58.5233 7.78426 58.0895 8.81298 57.6433 9.8355C55.8833 13.8636 54.1295 17.8918 52.3634 21.9137C51.6569 23.525 51.6507 23.5188 49.6738 23.2585C50.2254 22.0562 50.7583 20.8664 51.3098 19.6951C52.351 17.4828 52.3386 17.4952 51.3408 15.2828C50.0766 12.4755 48.8496 9.64959 47.542 6.69356C48.2856 6.69356 48.9116 6.65018 49.5313 6.71835C49.7172 6.73694 49.9217 7.05299 50.0146 7.27608C50.9938 9.59381 51.9544 11.9239 52.9211 14.2479C53.0141 14.471 53.1194 14.694 53.2186 14.9171C53.2805 14.9233 53.3425 14.9357 53.4107 14.9419Z" fill="currentColor"/>
</svg>
