<svg width="69" height="37" viewBox="0 0 69 37" fill="none" xmlns="http://www.w3.org/2000/svg">
<path d="M50.1151 1.48371C52.3576 1.48371 54.5365 1.93248 56.5883 2.81172C58.5766 3.66347 60.356 4.88158 61.8994 6.4294C63.4338 7.97721 64.6413 9.78148 65.4856 11.7872C66.3571 13.8571 66.802 16.0552 66.802 18.3174C66.802 20.5796 66.3571 22.7777 65.4856 24.8475C64.6413 26.8533 63.4338 28.6484 61.8994 30.2053C60.3651 31.7532 58.5766 32.9713 56.5883 33.823C54.5365 34.7023 52.3576 35.151 50.1151 35.151H18.1577C15.9152 35.151 13.7363 34.7023 11.6845 33.823C9.69619 32.9713 7.91674 31.7532 6.37334 30.2053C4.83902 28.6575 3.63153 26.8533 2.7872 24.8475C1.91563 22.7777 1.47077 20.5796 1.47077 18.3174C1.47077 16.0552 1.91563 13.8571 2.7872 11.7872C3.63153 9.78148 4.83902 7.98637 6.37334 6.4294C7.90766 4.88158 9.69619 3.66347 11.6845 2.81172C13.7363 1.93248 15.9152 1.48371 18.1577 1.48371H50.1151ZM50.1151 0H18.1577C8.17095 0 0 8.24282 0 18.3174C0 28.3919 8.17095 36.6347 18.1577 36.6347H50.1151C60.1018 36.6347 68.2728 28.3919 68.2728 18.3174C68.2728 8.24282 60.1018 0 50.1151 0Z" fill="#3C4043"/>
<path d="M32.5556 19.6179V25.1589H30.8125V11.4758H35.4336C36.6048 11.4758 37.6035 11.8696 38.4206 12.6572C39.2558 13.4449 39.6734 14.4066 39.6734 15.5422C39.6734 16.7054 39.2558 17.667 38.4206 18.4455C37.6125 19.224 36.6139 19.6087 35.4336 19.6087H32.5556V19.6179ZM32.5556 13.161V17.9327H35.4699C36.1599 17.9327 36.741 17.6945 37.1949 17.2274C37.6579 16.7603 37.894 16.1925 37.894 15.5514C37.894 14.9194 37.6579 14.3608 37.1949 13.8937C36.741 13.4083 36.169 13.1701 35.4699 13.1701H32.5556V13.161Z" fill="#3C4043"/>
<path d="M44.2298 15.4872C45.519 15.4872 46.5358 15.8352 47.2803 16.5313C48.0248 17.2273 48.397 18.1798 48.397 19.3888V25.1588H46.7356V23.8582H46.663C45.9457 24.9298 44.9834 25.461 43.785 25.461C42.7591 25.461 41.9056 25.1588 41.2157 24.5451C40.5257 23.9315 40.1807 23.1713 40.1807 22.2554C40.1807 21.2846 40.5438 20.5153 41.2701 19.9475C41.9964 19.3705 42.9679 19.0865 44.1753 19.0865C45.2103 19.0865 46.0637 19.2789 46.7265 19.6635V19.2606C46.7265 18.6469 46.4905 18.134 46.0093 17.7036C45.5281 17.2731 44.9652 17.0625 44.3206 17.0625C43.3492 17.0625 42.5775 17.4746 42.0146 18.3081L40.4803 17.3372C41.3246 16.1008 42.5775 15.4872 44.2298 15.4872ZM41.9783 22.2829C41.9783 22.7409 42.1689 23.1255 42.5593 23.4278C42.9406 23.73 43.3946 23.8857 43.9121 23.8857C44.6475 23.8857 45.3011 23.6109 45.8731 23.0614C46.4451 22.5119 46.7356 21.8708 46.7356 21.1289C46.1909 20.6985 45.4373 20.4787 44.4659 20.4787C43.7577 20.4787 43.1676 20.6527 42.6955 20.9916C42.2143 21.3487 41.9783 21.7792 41.9783 22.2829Z" fill="#3C4043"/>
<path d="M57.8762 15.7896L52.0658 29.2712H50.2682L52.4289 24.5544L48.5977 15.7896H50.4951L53.2551 22.512H53.2914L55.9787 15.7896H57.8762Z" fill="#3C4043"/>
<path d="M25.6233 18.5005C25.6233 17.9272 25.5724 17.3786 25.478 16.851H18.1714V19.8734L22.3794 19.8743C22.2087 20.8799 21.6595 21.7372 20.8179 22.3087V24.2695H23.3227C24.7853 22.904 25.6233 20.8854 25.6233 18.5005Z" fill="#4285F4"/>
<path d="M20.818 22.3089C20.1208 22.7833 19.2229 23.0608 18.1724 23.0608C16.1433 23.0608 14.422 21.6815 13.8055 19.8223H11.2217V21.8445C12.5018 24.4071 15.1328 26.1656 18.1724 26.1656C20.2733 26.1656 22.0382 25.4686 23.3229 24.2688L20.818 22.3089Z" fill="#34A853"/>
<path d="M13.5621 18.3219C13.5621 17.7998 13.6484 17.2952 13.8054 16.8208V14.7985H11.2216C10.6923 15.8582 10.3945 17.0543 10.3945 18.3219C10.3945 19.5894 10.6932 20.7856 11.2216 21.8452L13.8054 19.823C13.6484 19.3486 13.5621 18.8439 13.5621 18.3219Z" fill="#FABB05"/>
<path d="M18.1724 13.5823C19.3191 13.5823 20.3459 13.9807 21.1566 14.7592L23.3764 12.5217C22.0282 11.2551 20.2705 10.4775 18.1724 10.4775C15.1337 10.4775 12.5018 12.2359 11.2217 14.7985L13.8055 16.8208C14.422 14.9616 16.1433 13.5823 18.1724 13.5823Z" fill="#E94235"/>
</svg>
