<svg width="50" height="50" viewBox="0 0 50 50" fill="none" xmlns="http://www.w3.org/2000/svg">
<path d="M49.2114 17.6503C48.6036 13.0704 46.9828 8.9221 44.1243 5.88352C41.0852 3.0255 36.9363 1.40493 32.3557 0.79721C27.9821 0.215917 25.0047 0.36124 25.0047 0.36124C25.0047 0.36124 22.0273 0.220321 17.6537 0.79721C13.073 1.40493 8.92407 3.0255 5.88501 5.88352C3.02653 8.9221 1.4057 13.0704 0.797892 17.6503C0.216507 22.0232 0.361853 25.0001 0.361853 25.0001C0.361853 25.0001 0.220911 27.9771 0.797892 32.35C1.4057 36.9298 3.02653 41.0782 5.88501 44.1167C8.92407 46.9748 13.073 48.5953 17.6537 49.2031C22.0273 49.7844 25.0047 49.639 25.0047 49.639C25.0047 49.639 27.9821 49.7799 32.3557 49.2031C36.9363 48.5953 41.0852 46.9748 44.1243 44.1167C46.9828 41.0782 48.6036 36.9298 49.2114 32.35C49.7928 27.9771 49.6475 25.0001 49.6475 25.0001C49.6475 25.0001 49.7884 22.0232 49.2114 17.6503Z" fill="currentColor"/>
<g opacity="0.1">
<path opacity="0.1" d="M25.9161 0.347895C27.1185 0.347895 29.4221 0.413951 32.3554 0.80148C36.936 1.40919 41.085 3.02977 44.1241 5.88779C46.9825 8.92637 48.6034 13.0747 49.2112 17.6546C49.7926 22.0275 49.6472 25.0044 49.6472 25.0044C49.6472 25.0044 49.7882 27.9813 49.2112 32.3542C48.6034 36.9341 46.9825 41.0824 44.1241 44.121C41.085 46.979 36.936 48.5996 32.3554 49.2073C29.4265 49.5949 27.1229 49.6609 25.9205 49.6609C25.3303 49.6609 25.0044 49.6433 25.0044 49.6433C25.0044 49.6433 24.6785 49.6609 24.0883 49.6609C22.8859 49.6609 20.5824 49.5949 17.6534 49.2073C13.0728 48.5996 8.92381 46.979 5.88476 44.121C3.02628 41.0824 1.40545 36.9341 0.797635 32.3542C0.21625 27.9813 0.361596 25.0044 0.361596 25.0044C0.361596 25.0044 0.220655 22.0275 0.797635 17.6546C1.40545 13.0747 3.02628 8.92637 5.88476 5.88779C8.92381 3.02977 13.0728 1.40919 17.6534 0.80148C20.5868 0.413951 22.8903 0.347895 24.0927 0.347895C24.6829 0.347895 25.0044 0.365509 25.0044 0.365509C25.0044 0.365509 25.3259 0.347895 25.9161 0.347895ZM25.9161 0C25.392 0 25.0749 0.0132107 25.0044 0.0132107C24.9295 0.00880693 24.6168 0 24.0927 0C22.9563 0 20.6 0.057248 17.6094 0.453584C12.694 1.10534 8.55825 2.89325 5.65132 5.62797C2.89414 8.55646 1.10594 12.6916 0.454088 17.6061C-0.10087 21.7941 0.00483609 24.7534 0.013645 25C0.00483609 25.2466 -0.10087 28.2103 0.454088 32.3939C1.10594 37.3084 2.89415 41.4435 5.6293 44.3544C8.55384 47.1067 12.6896 48.8947 17.605 49.5464C20.5956 49.9427 22.9475 50 24.0839 50C24.6124 50 24.9251 49.9868 25 49.9868C25.0749 49.9912 25.392 50 25.9161 50C27.0525 50 29.4044 49.9427 32.3951 49.5464C37.2884 48.8991 41.4109 47.12 44.3178 44.4073L44.3267 44.4029L44.3707 44.3588C47.1059 41.4524 48.8941 37.3128 49.5459 32.3983C50.1009 28.2103 49.9952 25.251 49.9864 25.0044C49.9952 24.7578 50.1009 21.7941 49.5459 17.6105C48.8941 12.696 47.1059 8.56086 44.3707 5.64999L44.2694 5.5399H44.2562C41.3537 2.85802 37.2575 1.10093 32.3951 0.457989C29.4088 0.0572489 27.0569 0 25.9161 0Z" fill="black"/>
</g>
<path d="M9.42578 17.7777H13.8522C14.5261 17.7777 15.1471 17.901 15.7109 18.1388C16.2791 18.381 16.768 18.7069 17.182 19.1209C17.596 19.5348 17.9175 20.0192 18.1554 20.5829C18.3932 21.1422 18.5077 21.7411 18.5077 22.3796C18.5077 23.0182 18.3888 23.6215 18.1554 24.1851C17.9175 24.7532 17.596 25.242 17.182 25.656C16.768 26.0699 16.2747 26.3958 15.7021 26.638C15.1295 26.8802 14.5085 26.9991 13.8346 26.9991H11.835V30.6983H9.42578V17.7777ZM11.835 20.006V24.7708H13.6761C14.0284 24.7708 14.3543 24.7092 14.6494 24.5859C14.9445 24.4626 15.2 24.2908 15.4114 24.0706C15.6228 23.8505 15.7902 23.5994 15.9091 23.3088C16.028 23.0182 16.0853 22.7099 16.0853 22.3796C16.0853 22.0493 16.028 21.7411 15.9091 21.4504C15.7902 21.1598 15.6272 20.9088 15.4114 20.6974C15.2 20.486 14.9445 20.3187 14.6494 20.191C14.3543 20.0677 14.0284 20.006 13.6761 20.006H11.835Z" fill="white"/>
<path d="M24.0754 30.7203C23.45 30.7203 22.8334 30.6058 22.2256 30.3724C21.6178 30.139 21.0716 29.8 20.5871 29.3552C20.1026 28.9104 19.715 28.3687 19.4199 27.7258C19.1248 27.0829 18.9751 26.3518 18.9751 25.5327C18.9751 24.7004 19.1204 23.965 19.4111 23.3221C19.7018 22.6791 20.085 22.1375 20.5607 21.6927C21.0408 21.2479 21.5869 20.9088 22.208 20.6754C22.829 20.442 23.4632 20.3231 24.1107 20.3231C24.7934 20.3231 25.4276 20.4464 26.0046 20.693C26.5816 20.9396 27.0616 21.2787 27.4404 21.7059V20.3407H29.832V30.7027H27.4404V29.2319C27.0616 29.6943 26.5772 30.0598 25.987 30.324C25.3968 30.5882 24.7581 30.7203 24.0754 30.7203ZM24.463 28.5273C24.9123 28.5273 25.3263 28.448 25.7051 28.2939C26.0839 28.1397 26.4054 27.924 26.6785 27.6465C26.9515 27.3691 27.1673 27.0476 27.3259 26.6821C27.4845 26.3166 27.5637 25.9247 27.5637 25.5019C27.5637 25.0924 27.4845 24.7048 27.3259 24.3393C27.1673 23.9738 26.9515 23.6523 26.6785 23.3837C26.4054 23.1107 26.0839 22.8993 25.7051 22.7452C25.3263 22.591 24.9123 22.5118 24.463 22.5118C24.027 22.5118 23.6174 22.591 23.2298 22.7452C22.8466 22.8993 22.5119 23.1107 22.23 23.3749C21.9481 23.6391 21.7235 23.9562 21.5649 24.3217C21.4063 24.6872 21.3271 25.0836 21.3271 25.5019C21.3271 25.9247 21.4063 26.321 21.5649 26.6909C21.7235 27.0608 21.9437 27.3823 22.23 27.6553C22.5119 27.9284 22.8466 28.1397 23.2298 28.2939C23.6174 28.448 24.027 28.5273 24.463 28.5273Z" fill="white"/>
<path d="M34.8616 30.2578L30.6113 20.345H33.1615L36.0464 27.4306L38.7727 20.345H41.2877L35.1083 35.4674H32.6814L34.8616 30.2578Z" fill="white"/>
</svg>
